<?xml version="1.0" encoding="UTF-8"?>
<svg id="Calque_2" data-name="Calque 2" xmlns="http://www.w3.org/2000/svg" viewBox="0 0 1852.28 818.97" preserveAspectRatio="none">
  <g id="Calque_1-2" data-name="Calque 1">
    <path d="M1233.43,2.73c-20.66-.21-40.93.87-61.56-.73-7.06-.55-16.64-.03-24.61,0-5.09.02-10.22,1.15-15.26.61-8.7-.93-18.37.63-27.53.9-14.69.42-30.1-.84-44.86-.75l-157.27,3.46c-12.74-.49-24.32.56-36.89.74-27.24.4-50.44-2.48-77.74.53-6.64.73-21-1.51-28.73-2.02-50.27-3.32-101.58-1.4-152.1-1.48C433.54,3.73,239.79.31,66.27,0,18.87,4.33,2.78,24.52.47,73.64c-1.51,32.19,1.24,79.53-.03,111.84,2.96,2.79.09,2.92-.01,4.29l.21,78.36,2.04,1.52-2.23.76c.49,32.82-.47,25.67.02,58.49.19,12.96,1.14,46.12,1.54,59.08.58,19,1.22,68.25,2.42,87.18.77,12.21-.6,25.24-.72,37.71-.09,9.97,1.26,20.24.7,30.39-5.12,91.47-3.13,121.96-3.93,213.94,1,48.7,26.05,63.81,72.98,61.54,160.35,1.26,341.24-4.21,501.62-5.1,14.76-.08,30.17,1.18,44.86.75,9.16-.26,18.83-1.83,27.53-.9,5.04.54,10.17-.59,15.26-.61,7.97-.04,17.55-.55,24.61,0,20.63,1.59,40.9.52,61.56.73,98.85.98,371.02-.65,469.55-2.89,2.57-.06,7.15,2.28,7.99-.82l1.39,1.52c11.3-1.37,25.36,1.5,36.3-.02,2.25-.31,2.89-1.9,3.56-1.98s5.83,1.78,7.96,1.96c5.6.48,73.88.27,79.61,0,8.5-.39,14.69-.69,23.26-.48,21.3.53,143.11,1.26,163.63-2.41,8.14-1.46,18.41.33,26.75.69,1.23.05,2.34.68,3.55.79l1.15-1.5c-.88,1.6,2.99,1.6,3.86,1.43.24-.04,1.87-2.37,4.11-1.43-.91,2.94,3.1,3.2,2.91.72h.7s.71,1.81.71,1.81c32.11.45,64.55,5.59,96.67,5.4,11.67-.07,24.51.97,36.25-.02,6.67-.56,12.28-3.53,19.45-2.84,9.58.92,10.48.39,19.66-.77,5.7-.72,28.16,3.25,33.07,3.61,30.16,2.23,53.2-14.06,57.59-44.57,3.07-21.31,1.57-72.21,1.65-94.1.12-32.42-.51-65.28-.48-97.61.13-127.5-3.16-94.58-3.67-221.87-.16-39.73,2.3-100.52,2.64-140.08.47-53.32,1.66-49,1.54-102.36-.04-17.25,4.95-55.45-.67-70.94-12.5-34.47-31.26-41.27-66.65-43.11-55.68-2.89-132.12,2.19-187.26.05-58.8-2.28-118.28.21-176.69,0-5.36-.02-6.42.17-11.55.7-6.43.67-15.06-.59-21.73-.73-12.01-.26-23.52-.3-35.5-.03-4.85.11-7.58-.8-11.6-.79-5.77.01-12.92.24-18.79.54l-86.41,1.22Z"/>
  </g>
</svg>