<?xml version="1.0" encoding="UTF-8"?>
<svg id="Calque_2" xmlns="http://www.w3.org/2000/svg" version="1.1" viewBox="0 0 1473.9 1429.1">
  <!-- Generator: Adobe Illustrator 29.4.0, SVG Export Plug-In . SVG Version: 2.1.0 Build 152)  -->
  <g id="Dessin">
    <g>
      <path d="M779.1,569c24-.3,44.6,30.8,39.3,53.3-2.6,12.1-14.4,22.4-27.1,21.3-12.5-1.2-20-12-26.5-22.7-5.4-9.3-9.7-19.5-8.5-29.6,1.2-11.5,10.7-22.1,22.6-22.4h.2Z"/>
      <path d="M532.3,704.4c-24.6,0-44.4-8.4-56.1-24.7-6.5-9-13.1-24.4-8.2-47,3.2-14.9,11.3-31.2,24-48.6,2.1-2.9,4.3-5.7,6.5-8.5-3-2.3-5.8-4.8-8.3-7.2-17.4-17.3-17.2-34.7-15.6-43.5,2.9-15.6,14.3-29.1,32.1-38.2,12.3-6.3,27-10.1,40.2-10.6,25.7-.9,36.7,11.2,41.3,20.1,1.4-1,2.8-1.9,4.2-2.8,12.2-8.1,24.6-15.8,37.3-22.9,17.6-9.8,41.3-23,62-16.7,23.9,7.3,32.6,46.7,4.9,55.5-5.5,1.7-11.2,1.5-16.7,0-3.7-1-4.5-.6-8,1.1-7.2,3.5-14.2,7.4-21.1,11.4-20.7,12-40.7,25.4-59.5,40.2,29.4,16.3,55.7,38.8,54.3,69.8-.9,19.9-13.9,47.4-70.6,65.5-15.3,4.9-29.8,7.3-42.8,7.3h0ZM521.4,647.6c.2.3.7.5,1.2.6,12.3,2.9,25.2,0,37.2-3.9,10.8-3.5,21.4-8.1,30.1-15.3-7.9-8.5-17.5-14.8-27.7-20.3-1.4-.7-13.3-7.5-13.9-6.9-4.3,4.8-8.3,9.8-12,14.8-6.7,9.2-12.5,18.5-15.1,29.8,0,.4-.2.8,0,1.1,0,0,0,0,0,.1ZM535.1,534.3c.6.4,1.3.9,2.1,1.3,1.2-1.1,2.4-2.1,3.7-3.2-1.9.5-3.9,1.2-5.7,1.9h0ZM537.6,516.9h0s0,0,0,0ZM680.5,506.6h0ZM665.9,498.9s0,0,0,0c0,0,0,0,0,0ZM665.8,498.8s0,0,0,0c0,0,0,0,0,0Z"/>
      <path d="M1444.1.2c-96.8,7.4-719.6,237.8-1018.3,433.1-.3.2-.7.5-1,.7,31.5-87.3,69.7-120.9,105.8-200.3,39.5-86.7,40.4-84.7,51.1-114.8,20.3-57.5-18.6-91.3-43.1-55.8s-68.8,100-96.9,177c-28.2,77-51.1,145.5-123.1,230.7-70.7,83.6-121.6,125.3-128.1,130.5C59.5,704.9,1.2,774.5.1,795.3c-1.6,30.7,13.7,51.1,80.4-12.7,40.8-39.1,112-119.5,252.9-221.4-61.8,214.2-222.5,660.8-247.4,807.6-11,65,22.8,75.8,53.1,40.4,32-37.3,21.2-52.2,8.7-74.6,44.3-159.2,157-514.7,251.1-818.9,78.9-52.5,175.8-109.4,295.2-168.4C1093.8,149.6,1386.6,54.2,1437.3,44c50.7-10.2,44.6-46.7,6.8-43.8h0Z"/>
    </g>
  </g>
</svg>
